<svg xmlns="http://www.w3.org/2000/svg" width="26" height="26" viewBox="0 0 26 26"><g fill="none" fill-rule="evenodd" transform="translate(1 1)"><ellipse cx="11.865" cy="11.865" fill="#E8E8E8" stroke="#CCC" rx="11.865" ry="11.865"/><path fill="#4A4A4A" d="M9.023 13.53l-2.06-2.06 2.06-2.058-.773-.772-2.058 2.06-2.06-2.06-.772.772 2.06 2.06-2.06 2.06.772.77 2.06-2.06 2.058 2.06.773-.77M15.263 13.53l-2.06-2.06 2.06-2.058-.773-.772-2.058 2.06-2.06-2.06-.772.772 2.06 2.06-2.06 2.06.772.77 2.06-2.06 2.058 2.06.773-.77M21.503 13.53l-2.06-2.06 2.06-2.058-.773-.772-2.058 2.06-2.06-2.06-.772.772 2.06 2.06-2.06 2.06.772.77 2.06-2.06 2.058 2.06.773-.77"/></g></svg>