<svg xmlns="http://www.w3.org/2000/svg" width="26" height="26" viewBox="0 0 26 26"><g fill="none" fill-rule="evenodd" transform="translate(1 1)"><ellipse cx="11.865" cy="11.865" fill="#FC9734" stroke="#E58628" rx="11.865" ry="11.865"/><path fill="#C27223" d="M11.905 5.762c-.112 0-.203.09-.203.203 0 .11.09.202.203.202.11 0 .203-.09.203-.202 0-.112-.092-.203-.203-.203zm-4.36 12.57c-.558 0-1.013-.454-1.013-1.013V7.383c0-.56.455-1.014 1.014-1.014h2.33v-.608h1.035c.096-.462.505-.81.995-.81s.9.348.993.81h1.034v.608h2.332c.56 0 1.014.455 1.014 1.014v9.935c0 .558-.455 1.013-1.014 1.013H7.546z"/><path fill="#825D44" d="M7.343 6.39c-.446 0-.81.366-.81.812v9.935c0 .446.364.81.81.81h8.718c.447 0 .812-.364.812-.81V7.202c0-.446-.365-.81-.81-.81H7.34"/><path fill="#654836" d="M11.926 17.45H7.972v-.5.25h3.954v.25"/><path fill="#9C7C66" d="M6.532 7.405v-.203c0-.446.365-.81.81-.81h2.535v.202H7.343c-.446 0-.81.365-.81.81"/><path fill="#EAE0C8" d="M7.972 7.35h7.907v9.936H7.97"/><path fill="#57595B" d="M8.932 12.65h6.285v-.5H8.932M8.932 11.69h6.285v-.5H8.932M8.932 10.25h6.285v-.5H8.932M8.932 14.09h6.285v-.5H8.932M8.932 15.05h6.285v-.5H8.932"/><path fill="#573F30" d="M9.892 6.87h.422v.423h-.422"/><path fill="#9B9787" d="M11.92 7.858H9.89V7.35h.203v.305h1.824v.203"/><path fill="#E7E7E4" d="M11.717 6.167c-.224 0-.406-.18-.406-.405 0-.224.183-.406.407-.406.223 0 .405.182.405.406 0 .224-.182.405-.405.405zm.81-.405c0-.448-.362-.81-.81-.81-.448 0-.81.362-.81.81H9.89v1.622h3.65V5.762h-1.014z"/><path fill="#73523C" d="M16.17 17.745h-4.358v-.71h3.954V6.9H13.84v-.203h-.203V6.39h2.534c.447 0 .812.366.812.812v9.732c0 .447-.365.81-.81.81"/><path fill="#594130" d="M11.812 16.95h3.954v.423h-3.954"/><path fill="#8B6F5B" d="M17.077 7.405c0-.446-.365-.81-.81-.81H13.73V6.39h2.534c.446 0 .81.366.81.812v.203"/><path fill="#CDC6B2" d="M15.766 17.286h-3.954V15.36h3.143v-.406h-3.143v-.81h3.143v-.406h-3.143v-.81h3.143v-.407h-3.143v-.81h3.143v-.405h-3.143v-.81h3.143v-.407h-3.143v-2.23h2.027V7.35h1.926v9.936"/><path fill="#4D4F51" d="M11.812 12.15h3.143v.5h-3.143M11.812 11.19h3.143v.5h-3.143M11.812 9.75h3.143v.5h-3.143M11.812 13.59h3.143v.5h-3.143M11.812 14.55h3.143v.5h-3.143"/><path fill="#4E392C" d="M13.732 6.87h.422v.423h-.422"/><path fill="#8B8878" d="M13.84 7.858H11.81v-.203h1.825V7.35h.202v.508"/><path fill="#CBCAC6" d="M13.637 7.384h-1.825V6.167c.224 0 .405-.18.405-.405 0-.224-.18-.406-.405-.406V4.95c.448 0 .81.364.81.812h1.015v1.622"/></g></svg>